<svg width="53" height="33" viewBox="0 0 53 33" fill="none" xmlns="http://www.w3.org/2000/svg">
<path d="M26.5 0.916504C28.5112 0.916504 30.4401 1.71546 31.8622 3.13761C33.2844 4.55976 34.0833 6.48861 34.0833 8.49984C34.0833 10.5111 33.2844 12.4399 31.8622 13.8621C30.4401 15.2842 28.5112 16.0832 26.5 16.0832C24.4888 16.0832 22.5599 15.2842 21.1378 13.8621C19.7156 12.4399 18.9167 10.5111 18.9167 8.49984C18.9167 6.48861 19.7156 4.55976 21.1378 3.13761C22.5599 1.71546 24.4888 0.916504 26.5 0.916504ZM11.3333 6.33317C12.5467 6.33317 13.6733 6.65817 14.6483 7.24317C14.3233 10.3415 15.2333 13.4182 17.0967 15.8232C16.0133 17.9032 13.8467 19.3332 11.3333 19.3332C9.60943 19.3332 7.95613 18.6483 6.73714 17.4294C5.51815 16.2104 4.83333 14.5571 4.83333 12.8332C4.83333 11.1093 5.51815 9.45596 6.73714 8.23698C7.95613 7.01799 9.60943 6.33317 11.3333 6.33317ZM41.6667 6.33317C43.3906 6.33317 45.0439 7.01799 46.2629 8.23698C47.4818 9.45596 48.1667 11.1093 48.1667 12.8332C48.1667 14.5571 47.4818 16.2104 46.2629 17.4294C45.0439 18.6483 43.3906 19.3332 41.6667 19.3332C39.1533 19.3332 36.9867 17.9032 35.9033 15.8232C37.7924 13.3844 38.6692 10.3116 38.3517 7.24317C39.3267 6.65817 40.4533 6.33317 41.6667 6.33317ZM12.4167 28.5415C12.4167 24.0565 18.7217 20.4165 26.5 20.4165C34.2783 20.4165 40.5833 24.0565 40.5833 28.5415V32.3332H12.4167V28.5415ZM0.5 32.3332V29.0832C0.5 26.0715 4.595 23.5365 10.1417 22.7998C8.86333 24.2732 8.08333 26.3098 8.08333 28.5415V32.3332H0.5ZM52.5 32.3332H44.9167V28.5415C44.9167 26.3098 44.1367 24.2732 42.8583 22.7998C48.405 23.5365 52.5 26.0715 52.5 29.0832V32.3332Z" fill="#1D7607"/>
</svg>
