<svg width="20" height="20" viewBox="0 0 20 20" fill="none" xmlns="http://www.w3.org/2000/svg">
<path d="M9.99992 1.6665C7.70242 1.6665 5.83325 3.53567 5.83325 5.83317V8.33317H4.99992C4.55789 8.33317 4.13397 8.50877 3.82141 8.82133C3.50885 9.13389 3.33325 9.55781 3.33325 9.99984V16.6665C3.33325 17.1085 3.50885 17.5325 3.82141 17.845C4.13397 18.1576 4.55789 18.3332 4.99992 18.3332H14.9999C15.4419 18.3332 15.8659 18.1576 16.1784 17.845C16.491 17.5325 16.6666 17.1085 16.6666 16.6665V9.99984C16.6666 9.55781 16.491 9.13389 16.1784 8.82133C15.8659 8.50877 15.4419 8.33317 14.9999 8.33317H14.1666V5.83317C14.1666 3.53567 12.2974 1.6665 9.99992 1.6665ZM7.49992 5.83317C7.49992 4.45484 8.62158 3.33317 9.99992 3.33317C11.3783 3.33317 12.4999 4.45484 12.4999 5.83317V8.33317H7.49992V5.83317ZM10.8333 14.769V16.6665H9.16658V14.769C8.87524 14.6022 8.6413 14.3509 8.49561 14.0485C8.34992 13.746 8.29932 13.4065 8.35049 13.0746C8.40165 12.7428 8.55218 12.4343 8.78222 12.1898C9.01226 11.9452 9.31101 11.7762 9.63909 11.7048C9.88277 11.651 10.1354 11.6525 10.3785 11.7092C10.6215 11.766 10.8487 11.8766 11.0432 12.0329C11.2378 12.1892 11.3948 12.3871 11.5027 12.6122C11.6106 12.8372 11.6666 13.0836 11.6666 13.3332C11.6661 13.6246 11.5888 13.9108 11.4425 14.1629C11.2962 14.4149 11.0861 14.624 10.8333 14.769Z" fill="#F06F6F"/>
</svg>
