<svg width="77" height="77" viewBox="0 0 77 77" fill="none" xmlns="http://www.w3.org/2000/svg">
<g clip-path="url(#clip0_107_1255)">
<path fill-rule="evenodd" clip-rule="evenodd" d="M20.8258 33.5445C19.5722 29.6927 19.9 25.5007 21.7372 21.8906C23.5743 18.2805 26.7703 15.5481 30.6221 14.2945C34.4739 13.0409 38.6659 13.3687 42.276 15.2058C45.8861 17.043 48.6185 20.239 49.8721 24.0908L52.2927 23.303C53.5766 22.8851 54.9739 22.9944 56.1773 23.6068C57.3806 24.2192 58.2914 25.2845 58.7093 26.5684L66.5874 50.7737C67.0053 52.0576 66.896 53.4549 66.2836 54.6583C65.6712 55.8616 64.6059 56.7725 63.322 57.1903L29.4346 68.2196C28.1507 68.6375 26.7534 68.5283 25.55 67.9159C24.3466 67.3035 23.4358 66.2381 23.018 64.9542L15.1399 40.749C14.722 39.465 14.8313 38.0677 15.4437 36.8643C16.056 35.661 17.1214 34.7502 18.4053 34.3323L20.8258 33.5445ZM32.1977 19.1355C34.7656 18.2998 37.5603 18.5183 39.967 19.7431C42.3737 20.9679 44.1953 23.0986 45.0311 25.6664L25.6669 31.9689C24.8311 29.401 25.0497 26.6063 26.2744 24.1996C27.4992 21.7929 29.6299 19.9713 32.1977 19.1355ZM44.9169 41.7652C45.1934 42.6149 45.2414 43.5225 45.0561 44.3967C44.8707 45.2709 44.4585 46.0809 43.8608 46.7453L44.8598 49.8146C45.0687 50.4565 45.0141 51.1552 44.7079 51.7569C44.4017 52.3586 43.869 52.814 43.2271 53.0229C42.5851 53.2318 41.8864 53.1772 41.2848 52.871C40.6831 52.5648 40.2277 52.0321 40.0187 51.3902L39.0198 48.3209C37.9235 48.0884 36.9346 47.5007 36.2064 46.6489C35.4782 45.7971 35.0514 44.7288 34.9921 43.6097C34.9329 42.4906 35.2446 41.3832 35.8789 40.4593C36.5132 39.5354 37.4346 38.8466 38.5002 38.4997C39.7841 38.0819 41.1815 38.1911 42.3848 38.8035C43.5882 39.4159 44.499 40.4812 44.9169 41.7652Z" fill="#1D7607"/>
</g>
<defs>
<clipPath id="clip0_107_1255">
<rect width="61.0921" height="61.0921" fill="white" transform="translate(0 18.9072) rotate(-18.0285)"/>
</clipPath>
</defs>
</svg>
