<svg width="39" height="38" viewBox="0 0 39 38" fill="none" xmlns="http://www.w3.org/2000/svg">
<rect width="39" height="38" rx="4" fill="#D9D9D9"/>
<path d="M19.5 14.6904H14.8511C16.0533 13.5088 17.687 12.7666 19.5 12.7666C22.8643 12.7666 25.6177 15.2764 26.0879 18.5381H29.9564C29.4716 13.1475 24.9827 8.92383 19.5048 8.92383C16.4799 8.92383 13.7798 10.2324 11.8698 12.293V7L9 9.88574V17.5762H16.635L19.5 14.6904ZM22.365 21.4238L19.5 24.3096H24.1489C22.9467 25.4912 21.313 26.2334 19.5 26.2334C16.1357 26.2334 13.3823 23.7236 12.912 20.4619H9.04848C9.53324 25.8525 14.0222 30.0762 19.5 30.0762C22.5249 30.0762 25.2251 28.7676 27.135 26.707V32L30 29.1143V21.4238H22.365Z" fill="black"/>
</svg>
