<svg width="36" height="36" viewBox="0 0 36 36" fill="none" xmlns="http://www.w3.org/2000/svg">
<path d="M30.375 5.0625H12.375C12.2258 5.0625 12.0827 5.12176 11.9773 5.22725C11.8718 5.33274 11.8125 5.47582 11.8125 5.625V11.8125H5.625C5.47582 11.8125 5.33274 11.8718 5.22725 11.9773C5.12176 12.0827 5.0625 12.2258 5.0625 12.375V30.375C5.0625 30.5242 5.12176 30.6673 5.22725 30.7727C5.33274 30.8782 5.47582 30.9375 5.625 30.9375H23.625C23.7742 30.9375 23.9173 30.8782 24.0227 30.7727C24.1282 30.6673 24.1875 30.5242 24.1875 30.375V24.1875H30.375C30.5242 24.1875 30.6673 24.1282 30.7727 24.0227C30.8782 23.9173 30.9375 23.7742 30.9375 23.625V5.625C30.9375 5.47582 30.8782 5.33274 30.7727 5.22725C30.6673 5.12176 30.5242 5.0625 30.375 5.0625ZM23.0625 29.8125H6.1875V12.9375H23.0625V29.8125ZM29.8125 23.0625H24.1875V12.375C24.1875 12.2258 24.1282 12.0827 24.0227 11.9773C23.9173 11.8718 23.7742 11.8125 23.625 11.8125H12.9375V6.1875H29.8125V23.0625Z" fill="black"/>
</svg>
