<svg width="41" height="52" viewBox="0 0 41 52" fill="none" xmlns="http://www.w3.org/2000/svg">
<path d="M39.7134 7.48826L34.9652 2.32033C34.1414 1.42367 33.0241 0.919929 31.859 0.919922L16.1071 0.919922C13.681 0.919922 11.7143 3.06053 11.7143 5.70117V10.4824H4.39286C1.96672 10.4824 0 12.623 0 15.2637V47.1387C0 49.7793 1.96672 51.9199 4.39286 51.9199H24.8929C27.319 51.9199 29.2857 49.7793 29.2857 47.1387V42.3574H36.6071C39.0333 42.3574 41 40.2168 41 37.5762V10.8691C41 9.60104 40.5372 8.38492 39.7134 7.48826ZM24.3438 47.1387H4.94196C4.79633 47.1387 4.65666 47.0757 4.55369 46.9636C4.45071 46.8515 4.39286 46.6995 4.39286 46.541V15.8613C4.39286 15.7028 4.45071 15.5508 4.55369 15.4387C4.65666 15.3266 4.79633 15.2637 4.94196 15.2637H11.7143V37.5762C11.7143 40.2168 13.681 42.3574 16.1071 42.3574H24.8929V46.541C24.8929 46.6995 24.835 46.8515 24.732 46.9636C24.6291 47.0757 24.4894 47.1387 24.3438 47.1387ZM36.058 37.5762H16.6562C16.5106 37.5762 16.371 37.5132 16.268 37.4011C16.165 37.289 16.1071 37.137 16.1071 36.9785V6.29883C16.1071 6.14032 16.165 5.9883 16.268 5.87622C16.371 5.76414 16.5106 5.70117 16.6562 5.70117H26.3571V14.4668C26.3571 15.7871 27.3405 16.8574 28.5536 16.8574H36.6071V36.9785C36.6071 37.137 36.5493 37.289 36.4463 37.4011C36.3433 37.5132 36.2037 37.5762 36.058 37.5762ZM36.6071 12.0762H30.75V5.70117H31.6315C31.7771 5.70117 31.9168 5.76412 32.0198 5.87619L36.4463 10.6941C36.4973 10.7496 36.5378 10.8155 36.5654 10.888C36.593 10.9605 36.6072 11.0382 36.6071 11.1167V12.0762Z" fill="#1D7607"/>
</svg>
