<svg width="39" height="38" viewBox="0 0 39 38" fill="none" xmlns="http://www.w3.org/2000/svg">
<rect width="39" height="38" rx="4" fill="#D9D9D9"/>
<path d="M30.4611 21.019C30.5227 20.523 30.569 20.027 30.569 19.5C30.569 18.973 30.5227 18.477 30.4611 17.981L33.7148 15.4235C34.0078 15.191 34.0849 14.7725 33.8999 14.4315L30.8157 9.06856C30.7248 8.90864 30.5802 8.78649 30.4079 8.724C30.2355 8.66152 30.0466 8.66278 29.8751 8.72756L26.0353 10.2776C25.2334 9.65756 24.3698 9.14606 23.4292 8.75856L22.8432 4.65107C22.8177 4.4687 22.7268 4.30195 22.5877 4.1821C22.4486 4.06224 22.2708 3.99752 22.0876 4.00007H15.9192C15.5337 4.00007 15.2099 4.27907 15.1636 4.65107L14.5776 8.75856C13.637 9.14606 12.7734 9.67306 11.9715 10.2776L8.13174 8.72756C8.04233 8.69707 7.94859 8.68137 7.85417 8.68106C7.59202 8.68106 7.32986 8.82056 7.19107 9.06856L4.10691 14.4315C3.90644 14.7725 3.99897 15.191 4.29196 15.4235L7.54575 17.981C7.48407 18.477 7.43781 18.9885 7.43781 19.5C7.43781 20.0115 7.48407 20.523 7.54575 21.019L4.29196 23.5765C3.99897 23.809 3.92187 24.2275 4.10691 24.5685L7.19107 29.9315C7.28198 30.0914 7.42658 30.2136 7.59895 30.2761C7.77133 30.3386 7.96021 30.3373 8.13174 30.2725L11.9715 28.7225C12.7734 29.3425 13.637 29.854 14.5776 30.2415L15.1636 34.349C15.2099 34.721 15.5337 35 15.9192 35H22.0876C22.4731 35 22.7969 34.721 22.8432 34.349L23.4292 30.2415C24.3698 29.854 25.2334 29.327 26.0353 28.7225L29.8751 30.2725C29.9676 30.3035 30.0601 30.319 30.1526 30.319C30.4148 30.319 30.677 30.1795 30.8157 29.9315L33.8999 24.5685C34.0849 24.2275 34.0078 23.809 33.7148 23.5765L30.4611 21.019ZM27.4077 18.3685C27.4694 18.849 27.4848 19.1745 27.4848 19.5C27.4848 19.8255 27.454 20.1665 27.4077 20.6315L27.1918 22.383L28.5643 23.468L30.2297 24.77L29.1503 26.6455L27.1918 25.855L25.5881 25.204L24.2002 26.258C23.5371 26.754 22.9049 27.126 22.2726 27.3895L20.638 28.056L20.3913 29.8075L20.0829 31.9H17.924L17.631 29.8075L17.3842 28.056L15.7496 27.3895C15.0865 27.1105 14.4697 26.754 13.8529 26.289L12.4496 25.204L10.815 25.8705L8.85652 26.661L7.77706 24.7855L9.44251 23.4835L10.815 22.3985L10.5991 20.647C10.5528 20.1665 10.522 19.81 10.522 19.5C10.522 19.19 10.5528 18.8335 10.5991 18.3685L10.815 16.617L9.44251 15.532L7.77706 14.23L8.85652 12.3546L10.815 13.1451L12.4187 13.796L13.8066 12.7421C14.4697 12.2461 15.1019 11.8741 15.7342 11.6106L17.3688 10.9441L17.6155 9.19256L17.924 7.10007H20.0674L20.3604 9.19256L20.6072 10.9441L22.2418 11.6106C22.9049 11.8896 23.5217 12.2461 24.1385 12.7111L25.5418 13.796L27.1764 13.1296L29.1349 12.3391L30.2143 14.2145L28.5643 15.532L27.1918 16.617L27.4077 18.3685ZM19.0034 13.3001C15.5954 13.3001 12.8351 16.0745 12.8351 19.5C12.8351 22.9255 15.5954 25.7 19.0034 25.7C22.4114 25.7 25.1717 22.9255 25.1717 19.5C25.1717 16.0745 22.4114 13.3001 19.0034 13.3001ZM19.0034 22.6C17.3071 22.6 15.9192 21.205 15.9192 19.5C15.9192 17.795 17.3071 16.4 19.0034 16.4C20.6997 16.4 22.0876 17.795 22.0876 19.5C22.0876 21.205 20.6997 22.6 19.0034 22.6Z" fill="black"/>
</svg>
