<svg width="14" height="15" viewBox="0 0 14 15" fill="none" xmlns="http://www.w3.org/2000/svg">
<path d="M1.50244 1C1.23722 1 0.982871 1.10536 0.795335 1.29289C0.607798 1.48043 0.502441 1.73478 0.502441 2V3C0.502441 3.26522 0.607798 3.51957 0.795335 3.70711C0.982871 3.89464 1.23722 4 1.50244 4H2.00244V13C2.00244 13.5304 2.21316 14.0391 2.58823 14.4142C2.9633 14.7893 3.47201 15 4.00244 15H10.0024C10.5329 15 11.0416 14.7893 11.4167 14.4142C11.7917 14.0391 12.0024 13.5304 12.0024 13V4H12.5024C12.7677 4 13.022 3.89464 13.2095 3.70711C13.3971 3.51957 13.5024 3.26522 13.5024 3V2C13.5024 1.73478 13.3971 1.48043 13.2095 1.29289C13.022 1.10536 12.7677 1 12.5024 1H9.00244C9.00244 0.734784 8.89708 0.48043 8.70955 0.292893C8.52201 0.105357 8.26766 0 8.00244 0L6.00244 0C5.73723 0 5.48287 0.105357 5.29533 0.292893C5.1078 0.48043 5.00244 0.734784 5.00244 1H1.50244ZM4.50244 5C4.63505 5 4.76223 5.05268 4.85599 5.14645C4.94976 5.24021 5.00244 5.36739 5.00244 5.5V12.5C5.00244 12.6326 4.94976 12.7598 4.85599 12.8536C4.76223 12.9473 4.63505 13 4.50244 13C4.36983 13 4.24266 12.9473 4.14889 12.8536C4.05512 12.7598 4.00244 12.6326 4.00244 12.5V5.5C4.00244 5.36739 4.05512 5.24021 4.14889 5.14645C4.24266 5.05268 4.36983 5 4.50244 5ZM7.00244 5C7.13505 5 7.26223 5.05268 7.356 5.14645C7.44976 5.24021 7.50244 5.36739 7.50244 5.5V12.5C7.50244 12.6326 7.44976 12.7598 7.356 12.8536C7.26223 12.9473 7.13505 13 7.00244 13C6.86983 13 6.74266 12.9473 6.64889 12.8536C6.55512 12.7598 6.50244 12.6326 6.50244 12.5V5.5C6.50244 5.36739 6.55512 5.24021 6.64889 5.14645C6.74266 5.05268 6.86983 5 7.00244 5ZM10.0024 5.5V12.5C10.0024 12.6326 9.94976 12.7598 9.856 12.8536C9.76223 12.9473 9.63505 13 9.50244 13C9.36983 13 9.24266 12.9473 9.14889 12.8536C9.05512 12.7598 9.00244 12.6326 9.00244 12.5V5.5C9.00244 5.36739 9.05512 5.24021 9.14889 5.14645C9.24266 5.05268 9.36983 5 9.50244 5C9.63505 5 9.76223 5.05268 9.856 5.14645C9.94976 5.24021 10.0024 5.36739 10.0024 5.5Z" fill="black"/>
</svg>
