<svg width="30" height="31" viewBox="0 0 30 31" fill="none" xmlns="http://www.w3.org/2000/svg">
<path d="M22.9688 0.166992H7.03125C3.148 0.166992 0 3.31499 0 7.19824V23.1357C0 27.019 3.148 30.167 7.03125 30.167H22.9688C26.852 30.167 30 27.019 30 23.1357V7.19824C30 3.31499 26.852 0.166992 22.9688 0.166992Z" fill="#F4F2ED"/>
<path d="M4.87922 23.9605H8.60789V14.9051L3.28125 10.9102V22.3625C3.28125 23.2467 3.99773 23.9605 4.87922 23.9605Z" fill="#4285F4"/>
<path d="M21.3921 23.9606H25.1209C26.0051 23.9606 26.7188 23.2441 26.7188 22.3627V10.9102L21.3921 14.9052" fill="#34A853"/>
<path d="M21.3921 7.98056V14.9053L26.7188 10.9104V8.77943C26.7188 6.80329 24.463 5.67665 22.8837 6.86189" fill="#FBBC04"/>
<path d="M8.60791 14.9053V7.9807L14.9999 12.7745L21.3919 7.98047V14.9052L14.9999 19.6993" fill="#EA4335"/>
<path d="M3.28125 8.77943V10.9101L8.60789 14.9052V7.98056L7.11645 6.86189C5.53441 5.67665 3.28125 6.80329 3.28125 8.77943Z" fill="#C5221F"/>
</svg>
