<svg width="40" height="40" viewBox="0 0 40 40" fill="none" xmlns="http://www.w3.org/2000/svg">
<path d="M38.072 19.7469C38.0189 19.6281 36.7407 16.7953 33.8798 13.9344C31.2298 11.2844 26.672 8.125 20.0001 8.125C13.3282 8.125 8.77042 11.2844 6.12042 13.9344C3.25948 16.7953 1.98136 19.6281 1.92823 19.7469C1.89344 19.827 1.87549 19.9134 1.87549 20.0008C1.87549 20.0881 1.89344 20.1746 1.92823 20.2547C1.98136 20.375 3.25948 23.2063 6.12042 26.0672C8.77667 28.7234 13.3298 31.875 20.0001 31.875C26.6704 31.875 31.2298 28.7172 33.8798 26.0672C36.7407 23.2063 38.0189 20.375 38.072 20.2547C38.1068 20.1746 38.1247 20.0881 38.1247 20.0008C38.1247 19.9134 38.1068 19.827 38.072 19.7469ZM32.9626 25.2156C29.3579 28.8094 24.9939 30.625 19.9939 30.625C14.9939 30.625 10.636 28.8047 7.02511 25.2156C5.48869 23.6834 4.19656 21.9243 3.19386 20C4.19843 18.0752 5.49268 16.3162 7.03136 14.7844C10.6423 11.1953 15.0001 9.375 20.0001 9.375C25.0001 9.375 29.3579 11.1953 32.9689 14.7844C34.5073 16.3163 35.8016 18.0754 36.8064 20C35.8018 21.9248 34.5075 23.6838 32.9689 25.2156H32.9626ZM20.0001 13.125C18.6404 13.125 17.3112 13.5282 16.1806 14.2836C15.05 15.0391 14.1688 16.1128 13.6484 17.3691C13.1281 18.6253 12.9919 20.0076 13.2572 21.3412C13.5225 22.6749 14.1773 23.8999 15.1388 24.8614C16.1002 25.8228 17.3252 26.4776 18.6589 26.7429C19.9925 27.0082 21.3748 26.872 22.6311 26.3517C23.8873 25.8313 24.961 24.9501 25.7165 23.8195C26.4719 22.689 26.8751 21.3597 26.8751 20C26.873 18.1773 26.148 16.4298 24.8592 15.1409C23.5703 13.8521 21.8228 13.1271 20.0001 13.125ZM20.0001 25.625C18.8876 25.625 17.8001 25.2951 16.875 24.677C15.95 24.0589 15.229 23.1804 14.8033 22.1526C14.3775 21.1248 14.2661 19.9938 14.4832 18.9026C14.7002 17.8115 15.236 16.8092 16.0226 16.0225C16.8093 15.2359 17.8116 14.7001 18.9027 14.4831C19.9939 14.266 21.1249 14.3774 22.1527 14.8032C23.1805 15.2289 24.059 15.9499 24.6771 16.8749C25.2952 17.7999 25.6251 18.8875 25.6251 20C25.6251 21.4918 25.0325 22.9226 23.9776 23.9775C22.9227 25.0324 21.492 25.625 20.0001 25.625Z" fill="black"/>
</svg>
