<svg width="25" height="25" viewBox="0 0 25 25" fill="none" xmlns="http://www.w3.org/2000/svg">
<path d="M23.9316 9.71681H22.9583V9.66667H12.0833V14.5H18.9122C17.916 17.3136 15.2389 19.3333 12.0833 19.3333C8.07952 19.3333 4.83333 16.0871 4.83333 12.0833C4.83333 8.07952 8.07952 4.83333 12.0833 4.83333C13.9315 4.83333 15.6129 5.53054 16.8931 6.66939L20.3109 3.25162C18.1528 1.24035 15.2661 0 12.0833 0C5.41031 0 0 5.41031 0 12.0833C0 18.7564 5.41031 24.1667 12.0833 24.1667C18.7564 24.1667 24.1667 18.7564 24.1667 12.0833C24.1667 11.2731 24.0833 10.4823 23.9316 9.71681Z" fill="#FFC107"/>
<path d="M1.39355 6.45915L5.36353 9.37062C6.43774 6.71108 9.03928 4.83333 12.0837 4.83333C13.9318 4.83333 15.6132 5.53054 16.8935 6.66939L20.3112 3.25162C18.1531 1.24035 15.2664 0 12.0837 0C7.44247 0 3.41751 2.62027 1.39355 6.45915Z" fill="#FF3D00"/>
<path d="M12.0834 24.1668C15.2045 24.1668 18.0404 22.9723 20.1846 21.0299L16.4448 17.8653C15.1909 18.8189 13.6587 19.3347 12.0834 19.3334C8.94048 19.3334 6.27188 17.3294 5.26655 14.5327L1.32617 17.5687C3.32596 21.4818 7.38717 24.1668 12.0834 24.1668Z" fill="#4CAF50"/>
<path d="M23.9318 9.71714H22.9585V9.66699H12.0835V14.5003H18.9124C18.4358 15.8394 17.5774 17.0095 16.4432 17.8661L16.445 17.8649L20.1848 21.0296C19.9201 21.27 24.1668 18.1253 24.1668 12.0837C24.1668 11.2735 24.0835 10.4826 23.9318 9.71714Z" fill="#1976D2"/>
</svg>
