<svg width="68" height="68" viewBox="0 0 68 68" fill="none" xmlns="http://www.w3.org/2000/svg">
<path d="M34.1078 48.5488C34.7368 48.5488 35.2667 48.3335 35.6973 47.9028C36.128 47.4722 36.3433 46.9433 36.3433 46.3162C36.3433 45.6853 36.128 45.1555 35.6973 44.7267C35.2667 44.296 34.7378 44.0807 34.1107 44.0807C33.4817 44.0807 32.9518 44.296 32.5212 44.7267C32.0905 45.1555 31.8752 45.6843 31.8752 46.3133C31.8752 46.9423 32.0905 47.4712 32.5212 47.9C32.9518 48.3326 33.4807 48.5488 34.1078 48.5488ZM32.6487 39.1648H35.3828C35.4565 37.8993 35.6917 36.8935 36.0883 36.1473C36.485 35.3993 37.2415 34.4653 38.3578 33.3452C39.7216 31.9852 40.7095 30.8046 41.3215 29.8035C41.9335 28.8024 42.2395 27.6653 42.2395 26.3922C42.2395 24.1822 41.4802 22.4 39.9615 21.0457C38.4428 19.6932 36.5879 19.017 34.3968 19.017C32.3814 19.017 30.6464 19.5544 29.192 20.6292C27.7376 21.704 26.6741 22.9931 26.0017 24.4967L28.6083 25.5733C29.0824 24.4457 29.7605 23.5107 30.6427 22.7683C31.5267 22.0241 32.7204 21.652 34.224 21.652C36.0071 21.652 37.3331 22.1403 38.202 23.1168C39.0709 24.0915 39.5053 25.2003 39.5053 26.4432C39.5053 27.3914 39.2447 28.2593 38.7233 29.047C38.2039 29.8347 37.4767 30.663 36.5417 31.5318C35.0173 32.9372 33.9879 34.2027 33.4533 35.3285C32.9169 36.4505 32.6487 37.7293 32.6487 39.1648ZM15.9093 56.6663C14.606 56.6663 13.518 56.23 12.6453 55.3573C11.7708 54.4828 11.3335 53.3938 11.3335 52.0905V15.9088C11.3335 14.6055 11.7708 13.5175 12.6453 12.6448C13.518 11.7703 14.606 11.333 15.9093 11.333H52.091C53.3943 11.333 54.4823 11.7703 55.355 12.6448C56.2296 13.5175 56.6668 14.6055 56.6668 15.9088V52.0905C56.6668 53.3938 56.2305 54.4818 55.3578 55.3545C54.4833 56.2291 53.3943 56.6663 52.091 56.6663H15.9093Z" fill="#1D7607"/>
</svg>
