<svg width="359" height="78" viewBox="0 0 359 78" fill="none" xmlns="http://www.w3.org/2000/svg">
<path d="M78.0625 59.5V27.5H86.75V52.5H99.6875V59.5H78.0625ZM114.887 59.9375C112.283 59.9375 110.053 59.4219 108.199 58.3906C106.345 57.349 104.923 55.901 103.934 54.0469C102.944 52.1823 102.449 50.0208 102.449 47.5625C102.449 45.1042 102.944 42.9479 103.934 41.0937C104.923 39.2292 106.345 37.7812 108.199 36.75C110.053 35.7083 112.283 35.1875 114.887 35.1875C117.491 35.1875 119.72 35.7083 121.574 36.75C123.428 37.7812 124.85 39.2292 125.84 41.0937C126.829 42.9479 127.324 45.1042 127.324 47.5625C127.324 50.0208 126.829 52.1823 125.84 54.0469C124.85 55.901 123.428 57.349 121.574 58.3906C119.72 59.4219 117.491 59.9375 114.887 59.9375ZM114.949 53.5625C115.678 53.5625 116.309 53.3177 116.84 52.8281C117.371 52.3385 117.783 51.6406 118.074 50.7344C118.366 49.8281 118.512 48.75 118.512 47.5C118.512 46.2396 118.366 45.1615 118.074 44.2656C117.783 43.3594 117.371 42.6615 116.84 42.1719C116.309 41.6823 115.678 41.4375 114.949 41.4375C114.178 41.4375 113.517 41.6823 112.965 42.1719C112.413 42.6615 111.991 43.3594 111.699 44.2656C111.408 45.1615 111.262 46.2396 111.262 47.5C111.262 48.75 111.408 49.8281 111.699 50.7344C111.991 51.6406 112.413 52.3385 112.965 52.8281C113.517 53.3177 114.178 53.5625 114.949 53.5625ZM142.387 59.9375C139.783 59.9375 137.553 59.4219 135.699 58.3906C133.845 57.349 132.423 55.901 131.434 54.0469C130.444 52.1823 129.949 50.0208 129.949 47.5625C129.949 45.1042 130.444 42.9479 131.434 41.0937C132.423 39.2292 133.845 37.7812 135.699 36.75C137.553 35.7083 139.783 35.1875 142.387 35.1875C144.741 35.1875 146.777 35.6146 148.496 36.4688C150.225 37.3125 151.564 38.5104 152.512 40.0625C153.46 41.6042 153.939 43.4167 153.949 45.5H145.949C145.835 44.2396 145.47 43.2812 144.855 42.625C144.251 41.9583 143.47 41.625 142.512 41.625C141.762 41.625 141.105 41.8437 140.543 42.2812C139.98 42.7083 139.543 43.3594 139.23 44.2344C138.918 45.099 138.762 46.1875 138.762 47.5C138.762 48.8125 138.918 49.9062 139.23 50.7812C139.543 51.6458 139.98 52.2969 140.543 52.7344C141.105 53.1615 141.762 53.375 142.512 53.375C143.147 53.375 143.71 53.2292 144.199 52.9375C144.689 52.6354 145.085 52.1979 145.387 51.625C145.699 51.0417 145.887 50.3333 145.949 49.5H153.949C153.918 51.6146 153.434 53.4583 152.496 55.0312C151.559 56.5937 150.23 57.8021 148.512 58.6562C146.803 59.5104 144.762 59.9375 142.387 59.9375ZM165.258 53.8125L165.32 43.5625H166.445L172.258 35.5H181.945L172.195 48.0625H169.758L165.258 53.8125ZM157.508 59.5V27.5H166.133V59.5H157.508ZM172.32 59.5L166.82 50L172.445 43.875L182.195 59.5H172.32ZM249.527 37.5C249.444 36.4583 249.053 35.6458 248.355 35.0625C247.668 34.4792 246.621 34.1875 245.215 34.1875C244.319 34.1875 243.585 34.2969 243.012 34.5156C242.449 34.724 242.033 35.0104 241.762 35.375C241.491 35.7396 241.35 36.1562 241.34 36.625C241.319 37.0104 241.387 37.3594 241.543 37.6719C241.71 37.974 241.97 38.25 242.324 38.5C242.678 38.7396 243.132 38.9583 243.684 39.1562C244.236 39.3542 244.892 39.5312 245.652 39.6875L248.277 40.25C250.048 40.625 251.564 41.1198 252.824 41.7344C254.085 42.349 255.116 43.0729 255.918 43.9063C256.72 44.7292 257.309 45.6562 257.684 46.6875C258.069 47.7187 258.267 48.8437 258.277 50.0625C258.267 52.1667 257.741 53.9479 256.699 55.4062C255.658 56.8646 254.168 57.974 252.23 58.7344C250.303 59.4948 247.986 59.875 245.277 59.875C242.496 59.875 240.069 59.4635 237.996 58.6406C235.934 57.8177 234.329 56.5521 233.184 54.8437C232.048 53.125 231.475 50.9271 231.465 48.25H239.715C239.767 49.2292 240.012 50.0521 240.449 50.7187C240.887 51.3854 241.501 51.8906 242.293 52.2344C243.095 52.5781 244.048 52.75 245.152 52.75C246.079 52.75 246.855 52.6354 247.48 52.4062C248.105 52.1771 248.579 51.8594 248.902 51.4531C249.225 51.0469 249.392 50.5833 249.402 50.0625C249.392 49.5729 249.23 49.1458 248.918 48.7812C248.616 48.4062 248.116 48.0729 247.418 47.7812C246.72 47.4792 245.777 47.1979 244.59 46.9375L241.402 46.25C238.569 45.6354 236.335 44.6094 234.699 43.1719C233.074 41.724 232.267 39.75 232.277 37.25C232.267 35.2187 232.809 33.4427 233.902 31.9219C235.007 30.3906 236.533 29.1979 238.48 28.3437C240.439 27.4896 242.684 27.0625 245.215 27.0625C247.798 27.0625 250.033 27.4948 251.918 28.3594C253.803 29.224 255.257 30.4427 256.277 32.0156C257.309 33.5781 257.829 35.4062 257.84 37.5H249.527ZM276.02 35.5V41.75H260.207V35.5H276.02ZM263.27 29.75H271.895V51.7812C271.895 52.1146 271.952 52.3958 272.066 52.625C272.181 52.8437 272.358 53.0104 272.598 53.125C272.837 53.2292 273.145 53.2812 273.52 53.2812C273.78 53.2812 274.082 53.25 274.426 53.1875C274.78 53.125 275.04 53.0729 275.207 53.0312L276.457 59.0937C276.072 59.2083 275.52 59.349 274.801 59.5156C274.092 59.6823 273.249 59.7917 272.27 59.8438C270.29 59.9479 268.629 59.7448 267.285 59.2344C265.941 58.7135 264.931 57.8958 264.254 56.7812C263.577 55.6667 263.249 54.2708 263.27 52.5937V29.75ZM290.844 59.9375C288.24 59.9375 286.01 59.4219 284.156 58.3906C282.302 57.349 280.88 55.901 279.891 54.0469C278.901 52.1823 278.406 50.0208 278.406 47.5625C278.406 45.1042 278.901 42.9479 279.891 41.0937C280.88 39.2292 282.302 37.7812 284.156 36.75C286.01 35.7083 288.24 35.1875 290.844 35.1875C293.448 35.1875 295.677 35.7083 297.531 36.75C299.385 37.7812 300.807 39.2292 301.797 41.0937C302.786 42.9479 303.281 45.1042 303.281 47.5625C303.281 50.0208 302.786 52.1823 301.797 54.0469C300.807 55.901 299.385 57.349 297.531 58.3906C295.677 59.4219 293.448 59.9375 290.844 59.9375ZM290.906 53.5625C291.635 53.5625 292.266 53.3177 292.797 52.8281C293.328 52.3385 293.74 51.6406 294.031 50.7344C294.323 49.8281 294.469 48.75 294.469 47.5C294.469 46.2396 294.323 45.1615 294.031 44.2656C293.74 43.3594 293.328 42.6615 292.797 42.1719C292.266 41.6823 291.635 41.4375 290.906 41.4375C290.135 41.4375 289.474 41.6823 288.922 42.1719C288.37 42.6615 287.948 43.3594 287.656 44.2656C287.365 45.1615 287.219 46.2396 287.219 47.5C287.219 48.75 287.365 49.8281 287.656 50.7344C287.948 51.6406 288.37 52.3385 288.922 52.8281C289.474 53.3177 290.135 53.5625 290.906 53.5625ZM318.344 59.9375C315.74 59.9375 313.51 59.4219 311.656 58.3906C309.802 57.349 308.38 55.901 307.391 54.0469C306.401 52.1823 305.906 50.0208 305.906 47.5625C305.906 45.1042 306.401 42.9479 307.391 41.0937C308.38 39.2292 309.802 37.7812 311.656 36.75C313.51 35.7083 315.74 35.1875 318.344 35.1875C320.698 35.1875 322.734 35.6146 324.453 36.4688C326.182 37.3125 327.521 38.5104 328.469 40.0625C329.417 41.6042 329.896 43.4167 329.906 45.5H321.906C321.792 44.2396 321.427 43.2812 320.813 42.625C320.208 41.9583 319.427 41.625 318.469 41.625C317.719 41.625 317.063 41.8437 316.5 42.2812C315.938 42.7083 315.5 43.3594 315.188 44.2344C314.875 45.099 314.719 46.1875 314.719 47.5C314.719 48.8125 314.875 49.9062 315.188 50.7812C315.5 51.6458 315.938 52.2969 316.5 52.7344C317.063 53.1615 317.719 53.375 318.469 53.375C319.104 53.375 319.667 53.2292 320.156 52.9375C320.646 52.6354 321.042 52.1979 321.344 51.625C321.656 51.0417 321.844 50.3333 321.906 49.5H329.906C329.875 51.6146 329.391 53.4583 328.453 55.0312C327.516 56.5937 326.188 57.8021 324.469 58.6562C322.76 59.5104 320.719 59.9375 318.344 59.9375ZM341.215 53.8125L341.277 43.5625H342.402L348.215 35.5H357.902L348.152 48.0625H345.715L341.215 53.8125ZM333.465 59.5V27.5H342.09V59.5H333.465ZM348.277 59.5L342.777 50L348.402 43.875L358.152 59.5H348.277Z" fill="white"/>
<path d="M203.27 60C200.978 60 199.004 59.5937 197.348 58.7812C195.691 57.9687 194.421 56.8802 193.535 55.5156C192.65 54.151 192.207 52.6458 192.207 51C192.207 49.8021 192.436 48.7448 192.895 47.8281C193.353 46.901 193.993 46.0521 194.816 45.2813C195.639 44.5104 196.603 43.75 197.707 43L204.957 38.5C205.686 38.0417 206.181 37.5677 206.441 37.0781C206.702 36.5781 206.832 36.1354 206.832 35.75C206.832 35.2396 206.645 34.7865 206.27 34.3906C205.895 33.9948 205.311 33.8021 204.52 33.8125C204.03 33.8125 203.608 33.9062 203.254 34.0937C202.9 34.2708 202.624 34.5208 202.426 34.8438C202.238 35.1667 202.145 35.5521 202.145 36C202.145 36.6146 202.322 37.2448 202.676 37.8906C203.03 38.526 203.514 39.2135 204.129 39.9531C204.743 40.6927 205.436 41.5208 206.207 42.4375L221.707 59.5H213.082L200.082 45.75C199.447 45.0729 198.743 44.2448 197.973 43.2656C197.202 42.276 196.535 41.1615 195.973 39.9219C195.421 38.6823 195.145 37.3333 195.145 35.875C195.145 34.25 195.535 32.7656 196.316 31.4219C197.098 30.0781 198.191 29.0052 199.598 28.2031C201.004 27.401 202.645 27 204.52 27C206.311 27 207.853 27.3698 209.145 28.1094C210.447 28.849 211.447 29.8333 212.145 31.0625C212.853 32.2917 213.207 33.6458 213.207 35.125C213.207 36.6146 212.837 38.0052 212.098 39.2969C211.368 40.5885 210.322 41.7187 208.957 42.6875L202.332 47.375C201.822 47.7292 201.379 48.1354 201.004 48.5937C200.639 49.0521 200.457 49.6458 200.457 50.375C200.457 50.9792 200.598 51.4948 200.879 51.9219C201.16 52.349 201.556 52.6771 202.066 52.9063C202.587 53.1354 203.197 53.25 203.895 53.25C204.957 53.25 206.02 52.9948 207.082 52.4844C208.155 51.9635 209.134 51.2396 210.02 50.3125C210.905 49.375 211.613 48.2708 212.145 47C212.686 45.7187 212.957 44.3229 212.957 42.8125H219.77C219.77 44.6667 219.577 46.4531 219.191 48.1719C218.806 49.8906 218.186 51.4635 217.332 52.8906C216.478 54.3177 215.353 55.5208 213.957 56.5C213.52 56.7187 213.092 56.9271 212.676 57.125C212.259 57.3229 211.832 57.5313 211.395 57.75C210.113 58.5729 208.775 59.1562 207.379 59.5C205.983 59.8333 204.613 60 203.27 60Z" fill="#1D7607"/>
<g clip-path="url(#clip0_363_1005)">
<path fill-rule="evenodd" clip-rule="evenodd" d="M20.8258 34.0445C19.5722 30.1927 19.9 26.0007 21.7372 22.3906C23.5743 18.7805 26.7703 16.0481 30.6221 14.7945C34.4739 13.5409 38.6659 13.8687 42.276 15.7058C45.8861 17.543 48.6185 20.739 49.8721 24.5908L52.2927 23.803C53.5766 23.3851 54.9739 23.4944 56.1773 24.1068C57.3806 24.7192 58.2914 25.7845 58.7093 27.0684L66.5874 51.2737C67.0053 52.5576 66.896 53.9549 66.2836 55.1583C65.6712 56.3616 64.6059 57.2725 63.322 57.6903L29.4346 68.7196C28.1507 69.1375 26.7534 69.0283 25.55 68.4159C24.3466 67.8035 23.4358 66.7381 23.018 65.4542L15.1399 41.249C14.722 39.965 14.8313 38.5677 15.4437 37.3643C16.056 36.161 17.1214 35.2502 18.4053 34.8323L20.8258 34.0445ZM32.1977 19.6355C34.7656 18.7998 37.5603 19.0183 39.967 20.2431C42.3737 21.4679 44.1953 23.5986 45.0311 26.1664L25.6669 32.4689C24.8311 29.901 25.0497 27.1063 26.2744 24.6996C27.4992 22.2929 29.6299 20.4713 32.1977 19.6355ZM44.9169 42.2652C45.1934 43.1149 45.2414 44.0225 45.0561 44.8967C44.8707 45.7709 44.4585 46.5809 43.8608 47.2453L44.8598 50.3146C45.0687 50.9565 45.0141 51.6552 44.7079 52.2569C44.4017 52.8586 43.869 53.314 43.2271 53.5229C42.5851 53.7318 41.8864 53.6772 41.2848 53.371C40.6831 53.0648 40.2277 52.5321 40.0187 51.8902L39.0198 48.8209C37.9235 48.5884 36.9346 48.0007 36.2064 47.1489C35.4782 46.2971 35.0514 45.2288 34.9921 44.1097C34.9329 42.9906 35.2446 41.8832 35.8789 40.9593C36.5132 40.0354 37.4346 39.3466 38.5002 38.9997C39.7841 38.5819 41.1815 38.6911 42.3848 39.3035C43.5882 39.9159 44.499 40.9812 44.9169 42.2652Z" fill="#1D7607"/>
</g>
<defs>
<clipPath id="clip0_363_1005">
<rect width="61.0921" height="61.0921" fill="white" transform="translate(0 19.4072) rotate(-18.0285)"/>
</clipPath>
</defs>
</svg>
