<svg width="60" height="61" viewBox="0 0 60 61" fill="none" xmlns="http://www.w3.org/2000/svg">
<path fill-rule="evenodd" clip-rule="evenodd" d="M7.93 13.43C5 16.3575 5 21.0725 5 30.5C5 39.9275 5 44.6425 7.93 47.57C10.8575 50.5 15.5725 50.5 25 50.5H35C44.4275 50.5 49.1425 50.5 52.07 47.57C55 44.6425 55 39.9275 55 30.5C55 21.0725 55 16.3575 52.07 13.43C49.1425 10.5 44.4275 10.5 35 10.5H25C15.5725 10.5 10.8575 10.5 7.93 13.43ZM46.44 19.3C46.7581 19.682 46.9115 20.1746 46.8665 20.6697C46.8215 21.1647 46.5818 21.6217 46.2 21.94L40.71 26.515C38.4925 28.365 36.6975 29.86 35.11 30.88C33.46 31.9425 31.8525 32.6125 30 32.6125C28.1475 32.6125 26.54 31.94 24.8875 30.88C23.3025 29.86 21.5075 28.3625 19.29 26.5175L13.8 21.9425C13.4178 21.6242 13.1776 21.1672 13.1324 20.6718C13.0871 20.1765 13.2405 19.6835 13.5588 19.3013C13.877 18.919 14.3341 18.6788 14.8294 18.6336C15.3247 18.5884 15.8178 18.7417 16.2 19.06L21.6 23.5575C23.9325 25.5 25.55 26.845 26.92 27.725C28.2425 28.575 29.14 28.8625 30.0025 28.8625C30.865 28.8625 31.7625 28.5775 33.085 27.725C34.4525 26.845 36.0725 25.5 38.405 23.5575L43.8025 19.0575C44.1848 18.7397 44.6776 18.5867 45.1727 18.6321C45.6678 18.6776 46.122 18.9178 46.44 19.3Z" fill="#1D7607"/>
</svg>
