<svg width="82" height="81" viewBox="0 0 82 81" fill="none" xmlns="http://www.w3.org/2000/svg">
<path d="M22.7752 8.09961C21.164 8.09961 19.6188 8.73965 18.4795 9.87894C17.3402 11.0182 16.7002 12.5634 16.7002 14.1746V66.8246C16.7002 68.4358 17.3402 69.981 18.4795 71.1203C19.6188 72.2596 21.164 72.8996 22.7752 72.8996H42.041C41.0095 71.6503 40.1173 70.2923 39.3802 68.8496H22.7752C22.2381 68.8496 21.7231 68.6363 21.3433 68.2565C20.9635 67.8767 20.7502 67.3617 20.7502 66.8246V14.1746C20.7502 13.6375 20.9635 13.1225 21.3433 12.7427C21.7231 12.363 22.2381 12.1496 22.7752 12.1496H51.1252C51.6623 12.1496 52.1773 12.363 52.5571 12.7427C52.9369 13.1225 53.1502 13.6375 53.1502 14.1746V37.288C54.4741 36.9132 55.8299 36.6624 57.2002 36.5387V14.1746C57.2002 12.5634 56.5602 11.0182 55.4209 9.87894C54.2816 8.73965 52.7364 8.09961 51.1252 8.09961H22.7752ZM36.9502 58.7246C36.9502 58.0442 36.9826 57.3679 37.0393 56.6996H30.8752C30.3381 56.6996 29.8231 56.913 29.4433 57.2927C29.0635 57.6725 28.8502 58.1875 28.8502 58.7246C28.8502 59.2617 29.0635 59.7767 29.4433 60.1565C29.8231 60.5363 30.3381 60.7496 30.8752 60.7496H37.0393C36.9793 60.0763 36.9495 59.4006 36.9502 58.7246ZM59.2252 40.4996C64.0588 40.4996 68.6944 42.4197 72.1122 45.8376C75.5301 49.2554 77.4502 53.891 77.4502 58.7246C77.4502 63.5582 75.5301 68.1938 72.1122 71.6116C68.6944 75.0295 64.0588 76.9496 59.2252 76.9496C54.3916 76.9496 49.756 75.0295 46.3382 71.6116C42.9203 68.1938 41.0002 63.5582 41.0002 58.7246C41.0002 53.891 42.9203 49.2554 46.3382 45.8376C49.756 42.4197 54.3916 40.4996 59.2252 40.4996ZM68.7548 60.1583L68.767 60.1462C69.138 59.7706 69.3474 59.2647 69.3502 58.7368V58.7125C69.3469 58.1806 69.1345 57.6715 68.7589 57.295L60.6589 49.195C60.2792 48.8147 59.764 48.6009 59.2266 48.6005C58.6893 48.6001 58.1738 48.8132 57.7935 49.1929C57.4133 49.5726 57.1994 50.0878 57.1991 50.6252C57.1987 51.1626 57.4118 51.6781 57.7915 52.0583L62.4368 56.6996H51.1252C50.5881 56.6996 50.0731 56.913 49.6933 57.2927C49.3135 57.6725 49.1002 58.1875 49.1002 58.7246C49.1002 59.2617 49.3135 59.7767 49.6933 60.1565C50.0731 60.5363 50.5881 60.7496 51.1252 60.7496H62.4368L57.7915 65.3909C57.4113 65.7711 57.1976 66.2869 57.1976 66.8246C57.1976 67.3623 57.4113 67.8781 57.7915 68.2583C58.1717 68.6385 58.6875 68.8522 59.2252 68.8522C59.7629 68.8522 60.2787 68.6385 60.6589 68.2583L68.7548 60.1583Z" fill="#1D7607"/>
<path d="M36.5 24.667V32.667M36.5 37.5V36.5" stroke="#1D7607" stroke-width="1.5" stroke-linecap="round" stroke-linejoin="round"/>
</svg>
