<svg width="35" height="36" viewBox="0 0 35 36" fill="none" xmlns="http://www.w3.org/2000/svg">
<path d="M30.625 15.375V31.125H4.375V15.375" stroke="black" stroke-width="2" stroke-linecap="round" stroke-linejoin="round"/>
<path d="M9.625 10.125L17.5 4.875L25.375 10.125M17.5 25.875L6.125 18.2975V10.125H28.875V18.2975L17.5 25.875Z" stroke="black" stroke-width="2" stroke-linejoin="round"/>
<path d="M12.25 14.5H22.75M13.125 18H21.875" stroke="black" stroke-linecap="round"/>
<path fill-rule="evenodd" clip-rule="evenodd" d="M4.375 13.625C4.83913 13.625 5.28425 13.8094 5.61244 14.1376C5.94063 14.4658 6.125 14.9109 6.125 15.375V29.375H28.875V15.375C28.875 14.9109 29.0594 14.4658 29.3876 14.1376C29.7157 13.8094 30.1609 13.625 30.625 13.625C31.0891 13.625 31.5343 13.8094 31.8624 14.1376C32.1906 14.4658 32.375 14.9109 32.375 15.375V31.125C32.375 31.5891 32.1906 32.0343 31.8624 32.3624C31.5343 32.6906 31.0891 32.875 30.625 32.875H4.375C3.91087 32.875 3.46575 32.6906 3.13756 32.3624C2.80937 32.0343 2.625 31.5891 2.625 31.125V15.375C2.625 14.9109 2.80937 14.4658 3.13756 14.1376C3.46575 13.8094 3.91087 13.625 4.375 13.625Z" fill="black"/>
<path fill-rule="evenodd" clip-rule="evenodd" d="M4.375 10.125C4.375 9.66087 4.55937 9.21575 4.88756 8.88756C5.21575 8.55937 5.66087 8.375 6.125 8.375H28.875C29.3391 8.375 29.7843 8.55937 30.1124 8.88756C30.4406 9.21575 30.625 9.66087 30.625 10.125V18.2975C30.6249 18.5857 30.5535 18.8694 30.4174 19.1234C30.2812 19.3774 30.0844 19.5938 29.8445 19.7535L18.4695 27.331C18.1823 27.5221 17.845 27.6241 17.5 27.6241C17.155 27.6241 16.8177 27.5221 16.5305 27.331L5.1555 19.7535C4.91557 19.5938 4.71879 19.3774 4.58263 19.1234C4.44647 18.8694 4.37515 18.5857 4.375 18.2975V10.125ZM7.875 11.875V17.3612L17.5 23.7715L27.125 17.3612V11.875H7.875Z" fill="black"/>
<path fill-rule="evenodd" clip-rule="evenodd" d="M16.5288 3.41926C16.8164 3.22739 17.1543 3.125 17.5001 3.125C17.8458 3.125 18.1837 3.22739 18.4713 3.41926L26.3463 8.66926L24.4038 11.5813L17.5001 6.97876L10.5963 11.5813L8.65381 8.66926L16.5288 3.41926ZM11.3751 14.5003C11.3751 14.2682 11.4672 14.0456 11.6313 13.8815C11.7954 13.7174 12.018 13.6253 12.2501 13.6253H22.7501C22.9821 13.6253 23.2047 13.7174 23.3688 13.8815C23.5329 14.0456 23.6251 14.2682 23.6251 14.5003C23.6251 14.7323 23.5329 14.9549 23.3688 15.119C23.2047 15.2831 22.9821 15.3753 22.7501 15.3753H12.2501C12.018 15.3753 11.7954 15.2831 11.6313 15.119C11.4672 14.9549 11.3751 14.7323 11.3751 14.5003ZM12.2501 18.0003C12.2501 17.7682 12.3422 17.5456 12.5063 17.3815C12.6704 17.2174 12.893 17.1253 13.1251 17.1253H21.8751C22.1071 17.1253 22.3297 17.2174 22.4938 17.3815C22.6579 17.5456 22.7501 17.7682 22.7501 18.0003C22.7501 18.2323 22.6579 18.4549 22.4938 18.619C22.3297 18.7831 22.1071 18.8753 21.8751 18.8753H13.1251C12.893 18.8753 12.6704 18.7831 12.5063 18.619C12.3422 18.4549 12.2501 18.2323 12.2501 18.0003Z" fill="black"/>
<path d="M2.26273 5.23723C1.94395 4.90718 1.76756 4.46512 1.77155 4.00628C1.77554 3.54743 1.95958 3.10851 2.28405 2.78405C2.60851 2.45958 3.04743 2.27554 3.50628 2.27155C3.96512 2.26756 4.40718 2.44395 4.73723 2.76273L32.7372 30.7627C33.056 31.0928 33.2324 31.5348 33.2284 31.9937C33.2244 32.4525 33.0404 32.8914 32.7159 33.2159C32.3914 33.5404 31.9525 33.7244 31.4937 33.7284C31.0348 33.7324 30.5928 33.556 30.2627 33.2372L2.26273 5.23723Z" fill="black"/>
</svg>
