<svg width="32" height="33" viewBox="0 0 32 33" fill="none" xmlns="http://www.w3.org/2000/svg">
<path d="M0.491246 3.96575C0.172469 3.63569 -0.00392108 3.19364 6.61546e-05 2.73479C0.00405339 2.27595 0.188099 1.83703 0.512563 1.51256C0.837027 1.1881 1.27595 1.00405 1.73479 1.00007C2.19364 0.996079 2.63569 1.17247 2.96575 1.49125L30.9657 29.4912C31.2845 29.8213 31.4609 30.2634 31.4569 30.7222C31.4529 31.181 31.2689 31.62 30.9444 31.9444C30.62 32.2689 30.181 32.4529 29.7222 32.4569C29.2634 32.4609 28.8213 32.2845 28.4912 31.9657L0.491246 3.96575Z" fill="#FFD233"/>
<path d="M29 12.2502V28.0002H2.75V12.2502" stroke="#FFD233" stroke-width="2" stroke-linecap="round" stroke-linejoin="round"/>
<path d="M8 7.00024L15.875 1.75024L23.75 7.00024M15.875 22.7502L4.5 15.1727V7.00024H27.25V15.1727L15.875 22.7502Z" stroke="#FFD233" stroke-width="2" stroke-linejoin="round"/>
<path d="M10.625 11.3752H21.125M11.5 14.8752H20.25" stroke="#FFD233" stroke-linecap="round"/>
</svg>
