<svg width="58" height="58" viewBox="0 0 58 58" fill="none" xmlns="http://www.w3.org/2000/svg">
<path fill-rule="evenodd" clip-rule="evenodd" d="M7.66583 12.4993C4.8335 15.3292 4.8335 19.8871 4.8335 29.0003C4.8335 38.1136 4.8335 42.6714 7.66583 45.5013C10.4957 48.3337 15.0536 48.3337 24.1668 48.3337H33.8335C42.9467 48.3337 47.5046 48.3337 50.3345 45.5013C53.1668 42.6714 53.1668 38.1136 53.1668 29.0003C53.1668 19.8871 53.1668 15.3292 50.3345 12.4993C47.5046 9.66699 42.9467 9.66699 33.8335 9.66699H24.1668C15.0536 9.66699 10.4957 9.66699 7.66583 12.4993ZM30.8127 24.167C30.8127 23.6863 30.6217 23.2253 30.2818 22.8854C29.9419 22.5455 29.4809 22.3545 29.0002 22.3545C28.5195 22.3545 28.0584 22.5455 27.7185 22.8854C27.3786 23.2253 27.1877 23.6863 27.1877 24.167V25.8611L25.7207 25.0152C25.306 24.7944 24.8218 24.7432 24.3701 24.8725C23.9184 25.0018 23.5345 25.3014 23.2995 25.7083C23.0644 26.1151 22.9965 26.5973 23.1101 27.0532C23.2236 27.5091 23.5098 27.9031 23.9082 28.1521L25.3752 28.9979L23.9082 29.8462C23.4916 30.0865 23.1876 30.4825 23.0629 30.9471C22.9383 31.4116 23.0033 31.9066 23.2437 32.3232C23.484 32.7399 23.88 33.0439 24.3446 33.1686C24.8091 33.2932 25.3041 33.2282 25.7207 32.9878L27.1877 32.1396V33.8337C27.1877 34.3144 27.3786 34.7754 27.7185 35.1153C28.0584 35.4552 28.5195 35.6462 29.0002 35.6462C29.4809 35.6462 29.9419 35.4552 30.2818 35.1153C30.6217 34.7754 30.8127 34.3144 30.8127 33.8337V32.142L32.2796 32.9878C32.6962 33.2282 33.1912 33.2932 33.6558 33.1686C34.1203 33.0439 34.5163 32.7399 34.7567 32.3232C34.997 31.9066 35.062 31.4116 34.9374 30.9471C34.8128 30.4825 34.5087 30.0865 34.0921 29.8462L32.6252 29.0003L34.0921 28.1545C34.5087 27.9141 34.8128 27.5181 34.9374 27.0536C35.062 26.589 34.997 26.094 34.7567 25.6774C34.5163 25.2608 34.1203 24.9567 33.6558 24.8321C33.1912 24.7075 32.6962 24.7725 32.2796 25.0128L30.8127 25.8587V24.167ZM16.2716 22.3545C16.7523 22.3545 17.2133 22.5455 17.5532 22.8854C17.8931 23.2253 18.0841 23.6863 18.0841 24.167V25.8587L19.5486 25.0128C19.9652 24.7725 20.4602 24.7075 20.9248 24.8321C21.3893 24.9567 21.7853 25.2608 22.0257 25.6774C22.266 26.094 22.331 26.589 22.2064 27.0536C22.0818 27.5181 21.7777 27.9141 21.3611 28.1545L19.8942 29.0003L21.3611 29.8462C21.5674 29.9652 21.7482 30.1236 21.8932 30.3125C22.0383 30.5014 22.1447 30.717 22.2064 30.9471C22.2681 31.1771 22.2839 31.417 22.2529 31.6531C22.2219 31.8893 22.1447 32.117 22.0257 32.3232C21.9067 32.5295 21.7482 32.7104 21.5593 32.8554C21.3704 33.0004 21.1548 33.1068 20.9248 33.1686C20.6947 33.2303 20.4548 33.2461 20.2187 33.2151C19.9826 33.1841 19.7549 33.1068 19.5486 32.9878L18.0841 32.142V33.8337C18.0841 34.3144 17.8931 34.7754 17.5532 35.1153C17.2133 35.4552 16.7523 35.6462 16.2716 35.6462C15.7909 35.6462 15.3299 35.4552 14.9899 35.1153C14.65 34.7754 14.4591 34.3144 14.4591 33.8337V32.1396L12.9897 32.9854C12.575 33.2062 12.0908 33.2574 11.6391 33.1281C11.1874 32.9988 10.8035 32.6992 10.5685 32.2924C10.3334 31.8856 10.2655 31.4034 10.3791 30.9475C10.4926 30.4916 10.7788 30.0976 11.1772 29.8486L12.6442 29.0003L11.1772 28.1545C10.971 28.0355 10.7901 27.877 10.6451 27.6881C10.5001 27.4992 10.3936 27.2836 10.3319 27.0536C10.2702 26.8236 10.2544 26.5837 10.2854 26.3475C10.3164 26.1114 10.3937 25.8837 10.5127 25.6774C10.6317 25.4711 10.7901 25.2903 10.979 25.1453C11.1679 25.0002 11.3835 24.8938 11.6136 24.8321C11.8436 24.7704 12.0835 24.7546 12.3196 24.7856C12.5558 24.8166 12.7835 24.8938 12.9897 25.0128L14.4591 25.8611V24.167C14.4591 23.6863 14.65 23.2253 14.9899 22.8854C15.3299 22.5455 15.7909 22.3545 16.2716 22.3545ZM43.5437 24.167C43.5437 23.6863 43.3527 23.2253 43.0128 22.8854C42.6729 22.5455 42.2119 22.3545 41.7312 22.3545C41.2505 22.3545 40.7894 22.5455 40.4495 22.8854C40.1096 23.2253 39.9187 23.6863 39.9187 24.167V25.8611L38.4517 25.0152C38.037 24.7944 37.5528 24.7432 37.1011 24.8725C36.6494 25.0018 36.2655 25.3014 36.0305 25.7083C35.7954 26.1151 35.7275 26.5973 35.8411 27.0532C35.9546 27.5091 36.2408 27.9031 36.6392 28.1521L38.1062 28.9979L36.6368 29.8462C36.2202 30.0865 35.9161 30.4825 35.7915 30.9471C35.6669 31.4116 35.7319 31.9066 35.9722 32.3232C36.2126 32.7399 36.6086 33.0439 37.0731 33.1686C37.5377 33.2932 38.0327 33.2282 38.4493 32.9878L39.9187 32.1396V33.8337C39.9187 34.3144 40.1096 34.7754 40.4495 35.1153C40.7894 35.4552 41.2505 35.6462 41.7312 35.6462C42.2119 35.6462 42.6729 35.4552 43.0128 35.1153C43.3527 34.7754 43.5437 34.3144 43.5437 33.8337V32.142L45.0106 32.9878C45.4272 33.2282 45.9222 33.2932 46.3868 33.1686C46.8513 33.0439 47.2473 32.7399 47.4877 32.3232C47.728 31.9066 47.793 31.4116 47.6684 30.9471C47.5438 30.4825 47.2397 30.0865 46.8231 29.8462L45.3562 29.0003L46.8231 28.1545C47.2397 27.9141 47.5438 27.5181 47.6684 27.0536C47.793 26.589 47.728 26.094 47.4877 25.6774C47.2473 25.2608 46.8513 24.9567 46.3868 24.8321C45.9222 24.7075 45.4272 24.7725 45.0106 25.0128L43.5437 25.8587V24.167Z" fill="#1D7607"/>
</svg>
