<svg width="74" height="74" viewBox="0 0 74 74" fill="none" xmlns="http://www.w3.org/2000/svg">
<path d="M30.8333 36.9997C37.6448 36.9997 43.1667 31.4779 43.1667 24.6663C43.1667 17.8548 37.6448 12.333 30.8333 12.333C24.0218 12.333 18.5 17.8548 18.5 24.6663C18.5 31.4779 24.0218 36.9997 30.8333 36.9997Z" fill="#1D7607"/>
<path d="M32.899 40.1453C32.2207 40.1145 31.5423 40.0837 30.8332 40.0837C23.3715 40.0837 16.4032 42.1495 10.4523 45.6953C7.739 47.2987 6.1665 50.3203 6.1665 53.4962V61.667H34.7182C32.5404 58.5603 31.2247 54.9321 30.9052 51.1516C30.5856 47.3711 31.2736 43.5735 32.899 40.1453ZM63.979 49.3337C63.979 48.6553 63.8865 48.0387 63.794 47.3912L67.309 44.277L64.2257 38.9428L59.7548 40.4537C58.7682 39.6212 57.6582 38.9737 56.4248 38.5112L55.4998 33.917H49.3332L48.4082 38.5112C47.1748 38.9737 46.0648 39.6212 45.0782 40.4537L40.6073 38.9428L37.524 44.277L41.039 47.3912C40.9465 48.0387 40.854 48.6553 40.854 49.3337C40.854 50.012 40.9465 50.6287 41.039 51.2762L37.524 54.3903L40.6073 59.7245L45.0782 58.2137C46.0648 59.0462 47.1748 59.6937 48.4082 60.1562L49.3332 64.7503H55.4998L56.4248 60.1562C57.6582 59.6937 58.7682 59.0462 59.7548 58.2137L64.2257 59.7245L67.309 54.3903L63.794 51.2762C63.8865 50.6287 63.979 50.012 63.979 49.3337ZM52.4165 55.5003C49.0248 55.5003 46.2498 52.7253 46.2498 49.3337C46.2498 45.942 49.0248 43.167 52.4165 43.167C55.8082 43.167 58.5832 45.942 58.5832 49.3337C58.5832 52.7253 55.8082 55.5003 52.4165 55.5003Z" fill="#1D7607"/>
</svg>
