<svg width="62" height="60" viewBox="0 0 62 60" fill="none" xmlns="http://www.w3.org/2000/svg">
<path fill-rule="evenodd" clip-rule="evenodd" d="M12.3979 24V14C12.3979 12.1615 12.7721 10.341 13.499 8.64243C14.2259 6.94387 15.2913 5.40053 16.6344 4.10051C17.9775 2.80049 19.5721 1.76925 21.3269 1.06569C23.0818 0.362121 24.9627 0 26.8622 0C28.7617 0 30.6425 0.362121 32.3974 1.06569C34.1523 1.76925 35.7468 2.80049 37.0899 4.10051C38.4331 5.40053 39.4985 6.94387 40.2254 8.64243C40.9523 10.341 41.3264 12.1615 41.3264 14V24H47.5254C49.1695 24 50.7462 24.6321 51.9087 25.7574C53.0713 26.8826 53.7244 28.4087 53.7244 30V32.2C56.0599 32.659 58.1597 33.8855 59.6679 35.6715C61.1761 37.4575 62 39.6933 62 42C62 44.3067 61.1761 46.5425 59.6679 48.3285C58.1597 50.1145 56.0599 51.341 53.7244 51.8V54C53.7244 55.5913 53.0713 57.1174 51.9087 58.2426C50.7462 59.3679 49.1695 60 47.5254 60H6.19896C4.5549 60 2.97817 59.3679 1.81563 58.2426C0.653103 57.1174 0 55.5913 0 54L0 30C0 28.4087 0.653103 26.8826 1.81563 25.7574C2.97817 24.6321 4.5549 24 6.19896 24H12.3979ZM16.5306 14C16.5306 11.3478 17.6191 8.8043 19.5566 6.92893C21.4942 5.05357 24.1221 4 26.8622 4C29.6023 4 32.2302 5.05357 34.1677 6.92893C36.1053 8.8043 37.1938 11.3478 37.1938 14V24H16.5306V14ZM35.1275 36C33.4834 36 31.9067 36.6321 30.7441 37.7574C29.5816 38.8826 28.9285 40.4087 28.9285 42C28.9285 43.5913 29.5816 45.1174 30.7441 46.2426C31.9067 47.3679 33.4834 48 35.1275 48H51.658C53.3021 48 54.8788 47.3679 56.0414 46.2426C57.2039 45.1174 57.857 43.5913 57.857 42C57.857 40.4087 57.2039 38.8826 56.0414 37.7574C54.8788 36.6321 53.3021 36 51.658 36H35.1275Z" fill="#1D7607"/>
</svg>
