<svg width="34" height="34" viewBox="0 0 34 34" fill="none" xmlns="http://www.w3.org/2000/svg">
<rect width="32.7775" height="32.7775" transform="translate(0.611328 0.611328)" fill="white"/>
<path d="M22.3197 20.1947H21.2005L20.8038 19.8122C22.2402 18.1462 23.0296 16.0193 23.028 13.8197C23.028 11.9984 22.4879 10.2181 21.4761 8.70379C20.4643 7.18949 19.0261 6.00923 17.3435 5.31227C15.6609 4.61532 13.8095 4.43296 12.0232 4.78827C10.237 5.14357 8.5962 6.02058 7.30839 7.30839C6.02058 8.5962 5.14357 10.237 4.78827 12.0232C4.43296 13.8095 4.61532 15.6609 5.31227 17.3435C6.00923 19.0261 7.18949 20.4643 8.70379 21.4761C10.2181 22.4879 11.9984 23.028 13.8197 23.028C16.1005 23.028 18.1972 22.1922 19.8122 20.8038L20.1947 21.2005V22.3197L27.278 29.3888L29.3888 27.278L22.3197 20.1947ZM13.8197 20.1947C10.2922 20.1947 7.44467 17.3472 7.44467 13.8197C7.44467 10.2922 10.2922 7.44467 13.8197 7.44467C17.3472 7.44467 20.1947 10.2922 20.1947 13.8197C20.1947 17.3472 17.3472 20.1947 13.8197 20.1947Z" fill="#1D7607"/>
</svg>
