<svg width="207" height="236" viewBox="0 0 207 236" fill="none" xmlns="http://www.w3.org/2000/svg">
<path d="M103.5 118C136.167 118 162.643 91.5883 162.643 59C162.643 26.4117 136.167 0 103.5 0C70.8328 0 44.3571 26.4117 44.3571 59C44.3571 91.5883 70.8328 118 103.5 118ZM144.9 132.75H137.184C126.926 137.452 115.513 140.125 103.5 140.125C91.4866 140.125 80.1201 137.452 69.8163 132.75H62.1C27.8156 132.75 0 160.498 0 194.7V213.875C0 226.09 9.93415 236 22.1786 236H184.821C197.066 236 207 226.09 207 213.875V194.7C207 160.498 179.184 132.75 144.9 132.75Z" fill="#1D7607"/>
</svg>
